<?xml version="1.0" standalone="no"?>
<!DOCTYPE svg PUBLIC "-//W3C//DTD SVG 20010904//EN"
 "http://www.w3.org/TR/2001/REC-SVG-20010904/DTD/svg10.dtd">
<svg version="1.0" xmlns="http://www.w3.org/2000/svg"
 width="310.000000pt" height="310.000000pt" viewBox="0 0 310.000000 310.000000"
 preserveAspectRatio="xMidYMid meet">
<metadata>
Created by potrace 1.11, written by Peter Selinger 2001-2013
</metadata>
<g transform="translate(0.000000,310.000000) scale(0.100000,-0.100000)"
fill="#000000" stroke="none">
<path d="M2318 3074 c-30 -19 -48 -46 -94 -141 -31 -65 -79 -174 -106 -243
-27 -69 -53 -134 -58 -145 -5 -11 -27 -69 -50 -130 -23 -60 -51 -134 -62 -163
-11 -29 -41 -75 -65 -102 -50 -56 -83 -65 -83 -25 0 24 8 48 80 248 18 49 29
91 26 94 -8 8 -100 8 -113 0 -7 -4 -43 -60 -82 -125 -86 -146 -142 -218 -186
-239 -28 -14 -37 -14 -50 -3 -40 33 36 182 155 301 94 96 137 116 217 104 33
-5 43 -3 43 8 0 21 -45 37 -102 37 -94 0 -179 -34 -316 -127 -134 -90 -216
-133 -257 -133 -21 0 -32 -13 -71 -92 -60 -120 -119 -213 -151 -238 -31 -24
-61 -26 -70 -3 -10 26 25 141 68 224 50 97 100 154 144 169 40 13 38 30 -4 30
-114 0 -290 -197 -321 -361 -28 -147 46 -245 156 -209 78 26 218 191 287 338
22 48 45 92 51 98 13 12 126 56 126 49 0 -3 -18 -41 -39 -83 -47 -94 -57 -138
-41 -186 34 -104 162 -102 264 3 l40 41 32 -35 c37 -40 55 -43 120 -15 26 11
49 18 52 16 2 -3 -14 -53 -37 -111 -46 -120 -48 -132 -23 -151 20 -16 62 -18
62 -4 0 10 86 235 137 358 14 34 30 62 36 62 5 0 39 -21 75 -47 147 -105 407
-174 570 -152 153 21 286 145 270 251 -5 35 -21 31 -84 -19 -72 -58 -179 -115
-258 -138 -109 -32 -304 9 -453 95 -54 31 -67 50 -35 50 35 0 137 59 232 135
121 97 330 303 330 326 0 20 -48 34 -82 23 -13 -3 -47 -27 -77 -53 -166 -141
-396 -329 -400 -326 -2 2 28 53 66 112 103 158 114 178 176 295 99 190 129
305 89 341 -27 25 -90 20 -134 -9z m98 -37 c11 -29 -123 -297 -243 -485 -55
-87 30 133 137 356 66 136 91 167 106 129z"/>
<path d="M1003 3056 c-168 -55 -314 -238 -373 -471 -12 -47 -24 -144 -30 -235
-20 -308 -30 -423 -41 -463 -47 -177 -80 -256 -134 -316 -49 -54 -83 -71 -141
-71 -40 0 -51 5 -84 38 -100 99 -85 271 32 381 18 17 48 38 66 46 36 18 40 30
14 44 -12 6 -34 4 -69 -8 -148 -50 -243 -186 -243 -349 0 -39 4 -73 9 -77 5
-3 12 -18 16 -33 12 -53 82 -111 157 -132 197 -53 383 85 471 350 47 139 63
253 76 520 5 96 15 198 21 225 52 208 124 367 206 452 42 44 56 53 85 53 81 0
79 -25 -27 -335 -19 -55 -34 -108 -34 -118 0 -25 21 -30 61 -13 99 41 190 222
190 379 1 65 -18 102 -62 124 -40 19 -120 24 -166 9z"/>
<path d="M1556 1681 l-29 -6 1 -150 1 -150 36 -3 35 -3 0 80 c0 69 3 82 19 90
31 17 43 -9 40 -91 l-2 -73 36 -3 37 -3 0 81 c0 45 -4 90 -10 100 -14 26 -56
33 -91 16 l-29 -14 0 63 c0 35 -3 66 -7 68 -5 2 -21 1 -37 -2z"/>
<path d="M2179 1671 c17 -31 33 -37 29 -10 -2 13 -11 25 -21 27 -16 3 -17 1
-8 -17z"/>
<path d="M2849 1679 l-25 -9 3 -130 c4 -116 2 -131 -13 -137 -32 -12 -49 11
-52 72 -2 32 2 63 7 68 31 31 -14 37 -47 7 -43 -40 -47 -137 -6 -171 21 -17
83 -17 94 1 7 11 11 11 24 1 8 -7 27 -11 42 -9 l28 3 -3 150 c-1 82 -5 153 -7
157 -6 10 -12 9 -45 -3z"/>
<path d="M2090 1648 c-11 -18 -20 -42 -21 -53 0 -11 -1 -66 -2 -122 l-2 -103
36 0 35 0 -4 85 c-3 56 -1 90 7 99 9 11 9 16 1 21 -12 7 -9 55 5 88 14 33 -33
20 -55 -15z"/>
<path d="M1399 1593 c-25 -15 -26 -19 -22 -92 5 -102 10 -119 34 -131 21 -12
79 -4 79 10 0 4 -9 10 -21 13 -19 5 -20 12 -19 89 2 144 2 144 -51 111z"/>
<path d="M1158 1566 c-16 -8 -28 -11 -28 -5 0 11 -50 12 -65 1 -6 -4 -10 -64
-10 -142 0 -79 4 -138 10 -141 6 -4 21 -6 35 -4 21 1 25 7 28 41 2 21 8 44 13
50 7 8 6 14 -1 19 -5 3 -10 39 -10 81 0 71 1 74 24 74 47 0 69 -69 42 -134 -9
-21 -16 -40 -16 -41 0 -1 11 0 25 3 41 7 65 47 65 107 0 82 -51 123 -112 91z"/>
<path d="M2550 1567 c-17 -9 -30 -10 -41 -4 -9 6 -27 7 -40 4 -23 -6 -24 -9
-24 -102 l0 -95 38 0 37 0 0 80 c0 67 3 81 18 89 31 17 42 -6 42 -92 l0 -78
35 3 c20 2 35 6 35 11 0 4 0 40 0 80 0 43 -5 80 -12 90 -18 23 -59 29 -88 14z"/>
<path d="M3035 1568 c3 -7 14 -19 25 -26 17 -11 20 -10 20 8 0 11 -4 20 -9 20
-5 0 -17 3 -25 6 -11 4 -15 2 -11 -8z"/>
<path d="M814 1539 c3 -17 6 -58 6 -90 0 -52 3 -60 26 -76 25 -16 28 -16 57 1
20 11 33 14 35 7 4 -13 51 -14 69 -3 10 6 10 17 3 42 -6 19 -10 61 -10 92 l0
58 -32 0 -33 0 0 -82 c0 -77 -2 -83 -21 -86 -26 -4 -34 19 -34 106 l0 62 -36
0 c-36 0 -36 -1 -30 -31z"/>
<path d="M1798 1545 c-45 -45 -42 -124 6 -164 26 -22 100 -20 125 3 31 28 26
37 -17 30 -30 -5 -41 -2 -56 15 -19 21 -26 80 -12 119 10 31 -14 29 -46 -3z"/>
<path d="M1884 1554 c3 -9 6 -27 6 -40 0 -20 5 -24 30 -24 23 0 30 4 30 20 0
11 -9 29 -20 40 -24 24 -55 27 -46 4z"/>
<path d="M2200 1496 c0 -41 4 -86 9 -99 13 -33 44 -42 80 -24 19 9 33 11 39 5
5 -5 22 -8 38 -6 23 2 29 8 28 26 0 12 -1 56 -2 97 l-2 75 -34 0 -34 0 3 -67
c3 -87 -2 -105 -29 -101 -19 3 -21 10 -24 86 l-3 82 -34 0 -35 0 0 -74z"/>
<path d="M2954 1545 c-22 -34 -7 -75 34 -96 48 -25 64 -41 59 -61 -7 -23 15
-23 36 0 38 42 12 91 -63 122 -21 9 -30 19 -30 36 0 31 -15 31 -36 -1z"/>
<path d="M2940 1400 c0 -13 10 -24 26 -31 37 -13 41 -4 13 26 -29 30 -39 31
-39 5z"/>
</g>
</svg>
